<?xml version="1.0" standalone="no"?>
<!DOCTYPE svg PUBLIC "-//W3C//DTD SVG 20010904//EN"
 "http://www.w3.org/TR/2001/REC-SVG-20010904/DTD/svg10.dtd">
<svg version="1.0" xmlns="http://www.w3.org/2000/svg"
 width="1024.000000pt" height="1024.000000pt" viewBox="0 0 1024.000000 1024.000000"
 preserveAspectRatio="xMidYMid meet">
<metadata>
Created by potrace 1.14, written by Peter Selinger 2001-2017
</metadata>
<g transform="translate(0.000000,1024.000000) scale(0.100000,-0.100000)"
fill="#000000" stroke="none">
<path d="M3255 8269 c-130 -31 -270 -93 -360 -157 -184 -133 -343 -361 -394
-567 -26 -104 -36 -278 -22 -378 35 -249 196 -496 416 -639 50 -32 100 -61
113 -64 l22 -6 0 -532 0 -531 -44 -28 c-24 -15 -72 -55 -107 -90 -172 -168
-258 -408 -229 -640 42 -344 312 -621 670 -691 23 -5 29 -16 53 -103 62 -219
220 -484 394 -660 91 -93 263 -223 380 -289 l83 -46 0 -144 c0 -141 0 -144
-22 -149 -13 -3 -58 -12 -100 -20 -85 -17 -333 -94 -486 -151 -505 -188 -851
-406 -1085 -682 -233 -275 -349 -520 -413 -869 -12 -66 -17 -182 -21 -460 l-6
-373 162 0 161 0 0 188 c0 103 1 288 4 412 3 202 6 235 29 320 27 101 39 132
94 250 66 143 141 248 288 399 213 219 434 348 951 550 l171 68 33 -66 c49
-93 142 -215 229 -299 325 -313 792 -425 1263 -303 320 83 631 327 764 599 20
40 39 70 42 68 4 -2 79 -31 167 -64 276 -103 534 -228 700 -337 268 -177 486
-448 590 -735 60 -168 67 -229 72 -657 l5 -393 155 0 155 0 -5 407 c-5 458 -8
487 -88 726 -122 365 -383 689 -744 926 -306 200 -896 435 -1248 495 l-38 7 3
141 3 141 113 68 c372 222 638 561 743 947 20 73 25 83 48 88 76 15 182 49
237 76 140 68 271 195 346 335 106 198 118 488 28 681 -62 132 -141 229 -262
317 l-68 49 0 290 0 291 113 34 c61 19 155 50 207 70 194 74 221 161 85 277
-32 27 -79 67 -104 89 -26 22 -59 50 -74 61 l-27 22 75 72 c270 262 362 641
244 1000 -76 234 -280 463 -514 580 -136 68 -235 90 -400 90 -157 0 -265 -25
-411 -95 -170 -82 -341 -244 -411 -389 -14 -30 -21 -36 -38 -31 -278 79 -503
105 -905 105 -300 0 -555 -29 -705 -80 -54 -17 -61 -18 -70 -4 -5 9 -28 43
-49 77 -50 78 -172 200 -255 257 -78 52 -205 113 -286 135 -71 20 -357 30
-420 14z m325 -300 c84 -19 206 -86 276 -151 65 -61 128 -142 122 -156 -2 -4
-29 -31 -61 -61 -53 -50 -59 -53 -75 -38 -110 102 -183 145 -280 166 -109 23
-243 6 -340 -43 -26 -13 -77 -53 -113 -89 -112 -111 -163 -244 -164 -425 0
-59 -2 -69 -12 -56 -7 9 -25 31 -42 49 -16 18 -27 36 -24 39 4 3 -1 6 -10 6
-10 0 -17 7 -17 15 0 8 -5 15 -11 15 -6 0 -9 7 -5 15 3 8 0 18 -7 22 -59 38
-43 196 36 346 83 160 245 292 412 337 79 21 242 26 315 9z m3356 0 c100 -19
212 -79 302 -164 86 -81 146 -161 137 -183 -2 -7 -1 -10 4 -7 9 5 22 -20 20
-39 0 -5 5 -12 11 -16 7 -4 20 -41 30 -83 14 -59 16 -85 8 -121 -6 -27 -14
-44 -20 -40 -6 4 -6 -2 1 -14 11 -22 0 -39 -18 -27 -6 3 -10 -3 -10 -12 -1
-45 -4 -50 -24 -45 -14 3 -18 1 -13 -6 4 -7 3 -12 -3 -12 -6 0 -8 -6 -5 -13 3
-8 -5 -18 -18 -25 -13 -6 -17 -11 -11 -11 9 -1 8 -7 -4 -20 -23 -28 -31 -19
-31 37 0 135 -31 262 -83 338 -71 105 -213 200 -335 225 -138 28 -335 -30
-422 -125 l-43 -47 -77 38 c-42 21 -80 42 -84 47 -11 16 17 58 84 127 106 109
231 181 348 202 51 9 198 7 256 -4z m-1651 -399 c118 -9 293 -33 435 -60 212
-40 478 -142 628 -242 24 -15 47 -28 53 -28 5 0 9 -3 9 -7 0 -5 20 -21 45 -36
25 -16 45 -30 45 -32 0 -2 -25 7 -55 20 -30 14 -72 27 -93 31 -45 7 -105 -16
-127 -50 -19 -28 -22 -104 -6 -134 6 -12 9 -22 6 -22 -16 0 60 -53 165 -115
188 -112 300 -188 293 -198 -3 -6 -1 -7 5 -3 16 10 412 -273 412 -294 0 -3
-39 -11 -87 -18 -49 -6 -99 -14 -113 -17 -116 -25 -1007 -22 -1058 4 -9 4 -46
11 -82 15 -36 4 -83 11 -105 16 -22 5 -80 16 -130 25 -49 9 -98 21 -107 26
-10 5 -26 9 -35 9 -25 0 -204 57 -308 98 -142 56 -228 97 -320 154 -48 29 -95
58 -106 64 -11 6 -31 21 -45 33 -13 11 -26 21 -29 21 -2 0 -15 10 -27 23 -22
20 -128 115 -155 137 -77 64 -182 66 -232 6 -8 -9 -25 -16 -40 -16 -14 0 -49
-9 -76 -19 -28 -11 -66 -25 -85 -32 -94 -36 -258 -171 -286 -234 -7 -16 -39
-55 -71 -85 -67 -63 -107 -118 -154 -211 -18 -35 -37 -67 -43 -71 -6 -4 -8 -8
-5 -8 4 0 -2 -28 -12 -62 -19 -60 -44 -172 -52 -233 -2 -16 -5 85 -5 225 -3
374 19 493 117 650 87 140 260 240 417 240 34 0 56 5 64 15 7 8 10 15 6 15 -8
0 26 66 51 99 84 112 212 190 383 234 242 62 618 90 915 67z m-1003 -1102
c226 -261 552 -423 1063 -527 269 -55 381 -64 795 -65 206 -1 391 2 411 7 l37
7 7 -472 c4 -260 5 -669 2 -908 -4 -364 -7 -447 -22 -510 -103 -450 -458 -824
-925 -974 -210 -68 -290 -81 -530 -80 -182 0 -231 4 -315 22 -351 75 -639 236
-853 475 -146 163 -217 298 -284 532 -22 80 -22 81 -26 950 -4 1067 3 1187 71
1324 29 59 138 175 195 209 73 43 168 70 249 71 l71 1 54 -62z m-964 -1400 l4
-107 -54 -25 c-47 -22 -102 -68 -148 -123 -35 -41 -80 -165 -80 -219 0 -49
-24 -87 -40 -64 -5 8 -17 38 -25 65 -52 171 -13 327 115 456 64 65 177 133
210 127 12 -3 16 -24 18 -110z m3710 77 c75 -34 174 -136 213 -219 35 -74 53
-178 43 -252 -3 -29 -21 -82 -39 -120 l-33 -68 -7 70 c-11 115 -48 212 -105
276 -52 58 -135 118 -163 118 -15 0 -17 15 -17 116 l0 116 28 -7 c15 -3 51
-17 80 -30z m-2468 -2634 c0 -10 71 -41 160 -69 168 -52 357 -70 547 -52 168
16 230 33 381 101 35 16 65 29 67 29 3 0 5 -20 5 -44 0 -59 17 -105 53 -143
35 -38 76 -53 139 -55 l45 0 -28 -57 c-63 -129 -201 -260 -354 -335 -121 -59
-199 -82 -339 -97 -308 -34 -628 71 -801 263 -68 76 -126 164 -128 196 -2 22
3 27 23 30 70 7 93 16 125 43 37 33 65 104 65 166 0 26 4 33 20 33 11 0 20 -4
20 -9z"/>
<path d="M4330 5369 c-51 -16 -88 -46 -113 -92 -21 -40 -22 -53 -22 -292 0
-285 4 -301 84 -362 76 -58 157 -54 231 13 60 55 64 77 62 354 -2 225 -4 248
-23 288 -38 77 -133 116 -219 91z"/>
<path d="M5825 5375 c-5 -2 -22 -6 -37 -9 -15 -4 -43 -20 -63 -37 -58 -52 -67
-99 -63 -371 3 -266 9 -288 87 -343 36 -25 52 -30 102 -30 48 1 65 6 101 31
24 16 53 48 65 69 22 39 23 50 23 292 0 154 -4 263 -11 280 -28 75 -139 140
-204 118z"/>
<path d="M5025 4623 c-165 -36 -227 -171 -127 -276 37 -39 72 -56 150 -73 165
-34 342 57 342 176 0 61 -51 123 -130 159 -35 16 -64 20 -130 20 -47 -1 -94
-3 -105 -6z"/>
<path d="M5476 4035 c-20 -14 -52 -36 -72 -50 -78 -53 -236 -82 -365 -66 -89
12 -157 38 -238 95 -72 49 -119 50 -167 2 -106 -106 35 -276 296 -357 141 -44
372 -24 502 42 119 60 208 159 208 230 0 46 -33 97 -75 115 -45 18 -46 18 -89
-11z"/>
<path d="M3289 779 c-42 -11 -76 -38 -93 -74 -14 -28 -16 -83 -16 -369 l0
-336 155 0 155 0 0 327 c0 312 -1 329 -21 370 -12 24 -32 51 -46 60 -30 20
-100 32 -134 22z"/>
<path d="M6845 772 c-23 -11 -53 -34 -68 -51 l-27 -33 0 -344 0 -344 155 0
156 0 -3 338 c-3 316 -4 339 -23 371 -43 73 -117 97 -190 63z"/>
</g>
</svg>
